<svg width="512" height="512" viewBox="0 0 512 512" fill="none" xmlns="http://www.w3.org/2000/svg">
  <rect width="512" height="512" rx="112" fill="#000000"/>
  <rect x="100" y="80" width="312" height="352" rx="16" fill="#FFFFFF"/>
  <rect x="136" y="120" width="64" height="64" rx="32" fill="#F5F5F5"/>
  <rect x="220" y="130" width="140" height="16" rx="8" fill="#000000"/>
  <rect x="220" y="158" width="100" height="10" rx="5" fill="#A3A3A3"/>
  <rect x="136" y="220" width="240" height="8" rx="4" fill="#E5E5E5"/>
  <rect x="136" y="244" width="240" height="8" rx="4" fill="#E5E5E5"/>
  <rect x="136" y="268" width="160" height="8" rx="4" fill="#E5E5E5"/>
  <rect x="136" y="310" width="120" height="16" rx="8" fill="#000000"/>
  <rect x="136" y="342" width="240" height="8" rx="4" fill="#E5E5E5"/>
  <rect x="136" y="366" width="240" height="8" rx="4" fill="#E5E5E5"/>
  <rect x="136" y="390" width="180" height="8" rx="4" fill="#E5E5E5"/>
</svg>
